<svg width="128" height="128" viewBox="0 0 128 128" fill="none" xmlns="http://www.w3.org/2000/svg">
<g clip-path="url(#clip0_201_4)">
<rect width="128" height="128" rx="64" fill="black"/>
<path d="M66.672 108.536C59.6747 108.536 53.232 106.915 47.344 103.672C41.456 100.429 36.72 95.6507 33.136 89.336C29.6373 82.936 27.888 75.0853 27.888 65.784C27.888 56.568 29.68 48.7173 33.264 42.232C36.9333 35.6613 41.7547 30.6693 47.728 27.256C53.7867 23.7573 60.3147 22.008 67.312 22.008C72.688 22.008 77.5093 23.1173 81.776 25.336C86.0427 27.4693 89.584 29.9867 92.4 32.888L82.416 44.92C80.2827 42.9573 78.0213 41.3787 75.632 40.184C73.328 38.904 70.6827 38.264 67.696 38.264C63.9413 38.264 60.4853 39.3307 57.328 41.464C54.256 43.5973 51.7813 46.6693 49.904 50.68C48.112 54.6907 47.216 59.512 47.216 65.144C47.216 73.6773 49.0507 80.3333 52.72 85.112C56.3893 89.8907 61.296 92.28 67.44 92.28C70.8533 92.28 73.8827 91.512 76.528 89.976C79.2587 88.44 81.648 86.6053 83.696 84.472L93.68 96.248C86.6827 104.44 77.68 108.536 66.672 108.536Z" fill="#C8E0FC"/>
</g>
<defs>
<clipPath id="clip0_201_4">
<rect width="128" height="128" fill="white"/>
</clipPath>
</defs>
</svg>
