<svg width="150" height="23" viewBox="0 0 150 23" fill="none" xmlns="http://www.w3.org/2000/svg">
<path d="M7.496 18.288C6.168 18.288 4.936 18 3.8 17.424C2.68 16.832 1.776 15.944 1.088 14.76C0.4 13.576 0.0560001 12.096 0.0560001 10.32C0.0560001 9.008 0.256 7.848 0.656 6.84C1.072 5.816 1.632 4.952 2.336 4.248C3.056 3.544 3.864 3.016 4.76 2.664C5.672 2.296 6.616 2.112 7.592 2.112C8.632 2.112 9.56 2.32 10.376 2.736C11.208 3.136 11.896 3.616 12.44 4.176L10.28 6.816C9.896 6.48 9.496 6.208 9.08 6C8.68 5.776 8.216 5.664 7.688 5.664C7.08 5.664 6.512 5.848 5.984 6.216C5.472 6.568 5.056 7.08 4.736 7.752C4.432 8.424 4.28 9.232 4.28 10.176C4.28 11.632 4.584 12.76 5.192 13.56C5.816 14.344 6.632 14.736 7.64 14.736C8.248 14.736 8.784 14.6 9.248 14.328C9.728 14.056 10.136 13.744 10.472 13.392L12.632 15.984C11.976 16.752 11.208 17.328 10.328 17.712C9.448 18.096 8.504 18.288 7.496 18.288ZM14.4545 18V6H18.5825V18H14.4545ZM16.5185 4.512C15.8465 4.512 15.3025 4.328 14.8865 3.96C14.4705 3.576 14.2625 3.072 14.2625 2.448C14.2625 1.824 14.4705 1.328 14.8865 0.959999C15.3025 0.575999 15.8465 0.383999 16.5185 0.383999C17.1905 0.383999 17.7345 0.575999 18.1505 0.959999C18.5665 1.328 18.7745 1.824 18.7745 2.448C18.7745 3.072 18.5665 3.576 18.1505 3.96C17.7345 4.328 17.1905 4.512 16.5185 4.512ZM21.3686 22.224V6H24.7286L25.0166 7.104H25.1126C25.5606 6.688 26.0646 6.352 26.6246 6.096C27.2006 5.84 27.7846 5.712 28.3766 5.712C29.3206 5.712 30.1366 5.968 30.8246 6.48C31.5286 6.976 32.0726 7.68 32.4566 8.592C32.8406 9.504 33.0326 10.576 33.0326 11.808C33.0326 13.184 32.7926 14.36 32.3126 15.336C31.8326 16.296 31.2086 17.032 30.4406 17.544C29.6886 18.04 28.8886 18.288 28.0406 18.288C27.0486 18.288 26.1526 17.888 25.3526 17.088L25.4966 18.912V22.224H21.3686ZM27.0326 14.928C27.5126 14.928 27.9286 14.704 28.2806 14.256C28.6326 13.808 28.8086 13.008 28.8086 11.856C28.8086 10.864 28.6646 10.152 28.3766 9.72C28.1046 9.288 27.6886 9.072 27.1286 9.072C26.8246 9.072 26.5446 9.136 26.2886 9.264C26.0326 9.392 25.7686 9.616 25.4966 9.936V14.352C25.7366 14.56 25.9846 14.712 26.2406 14.808C26.5126 14.888 26.7766 14.928 27.0326 14.928ZM35.2904 18V1.296H39.4184V5.184L39.2264 7.248C39.6424 6.88 40.1384 6.536 40.7144 6.216C41.3064 5.88 42.0104 5.712 42.8264 5.712C44.1544 5.712 45.1064 6.16 45.6824 7.056C46.2744 7.936 46.5704 9.12 46.5704 10.608V18H42.4424V11.136C42.4424 10.368 42.3464 9.856 42.1544 9.6C41.9624 9.344 41.6584 9.216 41.2424 9.216C40.8584 9.216 40.5384 9.296 40.2824 9.456C40.0264 9.616 39.7384 9.84 39.4184 10.128V18H35.2904ZM54.8272 18.288C53.6592 18.288 52.6032 18.04 51.6592 17.544C50.7312 17.048 49.9952 16.336 49.4512 15.408C48.9072 14.464 48.6352 13.328 48.6352 12C48.6352 10.704 48.9072 9.592 49.4512 8.664C50.0112 7.72 50.7312 6.992 51.6112 6.48C52.4912 5.968 53.4192 5.712 54.3952 5.712C55.5792 5.712 56.5552 5.976 57.3232 6.504C58.1072 7.016 58.6832 7.712 59.0512 8.592C59.4352 9.472 59.6272 10.448 59.6272 11.52C59.6272 11.872 59.6032 12.216 59.5552 12.552C59.5232 12.872 59.4912 13.104 59.4592 13.248H52.6192C52.8112 13.968 53.1552 14.472 53.6512 14.76C54.1472 15.032 54.7312 15.168 55.4032 15.168C56.1712 15.168 56.9872 14.928 57.8512 14.448L59.1952 16.896C58.5552 17.344 57.8352 17.688 57.0352 17.928C56.2352 18.168 55.4992 18.288 54.8272 18.288ZM52.5712 10.56H56.1232C56.1232 10.096 56.0032 9.696 55.7632 9.36C55.5392 9.008 55.1152 8.832 54.4912 8.832C54.0432 8.832 53.6432 8.968 53.2912 9.24C52.9392 9.512 52.6992 9.952 52.5712 10.56ZM61.892 18V6H65.252L65.54 8.064H65.636C66.084 7.248 66.612 6.656 67.22 6.288C67.844 5.904 68.452 5.712 69.044 5.712C69.412 5.712 69.708 5.736 69.932 5.784C70.172 5.816 70.372 5.872 70.532 5.952L69.86 9.504C69.652 9.456 69.444 9.416 69.236 9.384C69.028 9.336 68.788 9.312 68.516 9.312C68.084 9.312 67.628 9.464 67.148 9.768C66.684 10.056 66.308 10.576 66.02 11.328V18H61.892ZM76.0353 18.192C75.1606 18.192 74.3659 17.984 73.6513 17.568C72.9366 17.152 72.3659 16.544 71.9393 15.744C71.5233 14.9333 71.3153 13.952 71.3153 12.8C71.3153 11.6587 71.5286 10.6827 71.9553 9.872C72.3926 9.05067 72.9739 8.42667 73.6993 8C74.4246 7.56267 75.2246 7.344 76.0993 7.344C76.7606 7.344 77.3473 7.47733 77.8593 7.744C78.3713 8.01067 78.7926 8.32 79.1233 8.672L78.1313 9.872C77.8646 9.59467 77.5659 9.376 77.2353 9.216C76.9153 9.04533 76.5526 8.96 76.1473 8.96C75.5819 8.96 75.0753 9.11467 74.6273 9.424C74.1899 9.72267 73.8433 10.1547 73.5873 10.72C73.3419 11.2853 73.2193 11.9627 73.2193 12.752C73.2193 13.9467 73.4806 14.8853 74.0033 15.568C74.5259 16.24 75.2246 16.576 76.0993 16.576C76.5686 16.576 76.9846 16.48 77.3473 16.288C77.7099 16.0853 78.0406 15.824 78.3393 15.504L79.3313 16.672C78.9046 17.1627 78.4139 17.5413 77.8593 17.808C77.3153 18.064 76.7073 18.192 76.0353 18.192ZM80.918 18V10.144H82.758V18H80.918ZM81.846 8.768C81.5153 8.768 81.2487 8.672 81.046 8.48C80.8433 8.288 80.742 8.032 80.742 7.712C80.742 7.40267 80.8433 7.152 81.046 6.96C81.2487 6.768 81.5153 6.672 81.846 6.672C82.1767 6.672 82.4433 6.768 82.646 6.96C82.8487 7.152 82.95 7.40267 82.95 7.712C82.95 8.032 82.8487 8.288 82.646 8.48C82.4433 8.672 82.1767 8.768 81.846 8.768ZM85.1055 21.104V10.144H86.6255L86.7535 10.976H86.8175C87.1482 10.6987 87.5162 10.4587 87.9215 10.256C88.3375 10.0533 88.7588 9.952 89.1855 9.952C90.1668 9.952 90.9242 10.3147 91.4575 11.04C92.0015 11.7653 92.2735 12.736 92.2735 13.952C92.2735 14.848 92.1135 15.616 91.7935 16.256C91.4735 16.8853 91.0575 17.3653 90.5455 17.696C90.0442 18.0267 89.5002 18.192 88.9135 18.192C88.5722 18.192 88.2308 18.1173 87.8895 17.968C87.5482 17.808 87.2175 17.5947 86.8975 17.328L86.9455 18.64V21.104H85.1055ZM88.5295 16.672C89.0522 16.672 89.4895 16.4427 89.8415 15.984C90.1935 15.5253 90.3695 14.8533 90.3695 13.968C90.3695 13.1787 90.2362 12.5653 89.9695 12.128C89.7028 11.6907 89.2708 11.472 88.6735 11.472C88.1188 11.472 87.5428 11.7653 86.9455 12.352V16.016C87.2335 16.2507 87.5108 16.4213 87.7775 16.528C88.0442 16.624 88.2948 16.672 88.5295 16.672ZM94.1368 18V6.704H95.9768V9.616L95.9128 11.136C96.2434 10.8267 96.6114 10.5547 97.0168 10.32C97.4221 10.0747 97.8914 9.952 98.4248 9.952C99.2674 9.952 99.8808 10.224 100.265 10.768C100.649 11.312 100.841 12.08 100.841 13.072V18H99.0008V13.312C99.0008 12.6613 98.9048 12.2027 98.7128 11.936C98.5208 11.6693 98.2061 11.536 97.7688 11.536C97.4274 11.536 97.1234 11.6213 96.8568 11.792C96.6008 11.952 96.3074 12.192 95.9768 12.512V18H94.1368ZM106.419 18.192C105.693 18.192 105.037 18.032 104.451 17.712C103.864 17.3813 103.4 16.912 103.059 16.304C102.717 15.6853 102.547 14.944 102.547 14.08C102.547 13.2267 102.717 12.4907 103.059 11.872C103.411 11.2533 103.864 10.7787 104.419 10.448C104.973 10.1173 105.555 9.952 106.163 9.952C106.877 9.952 107.475 10.112 107.955 10.432C108.435 10.7413 108.797 11.1787 109.043 11.744C109.288 12.2987 109.411 12.944 109.411 13.68C109.411 14.064 109.384 14.3627 109.331 14.576H104.339C104.424 15.2693 104.675 15.808 105.091 16.192C105.507 16.576 106.029 16.768 106.659 16.768C107 16.768 107.315 16.72 107.603 16.624C107.901 16.5173 108.195 16.3733 108.483 16.192L109.107 17.344C108.733 17.5893 108.317 17.792 107.859 17.952C107.4 18.112 106.92 18.192 106.419 18.192ZM104.323 13.328H107.811C107.811 12.72 107.677 12.2453 107.411 11.904C107.144 11.552 106.744 11.376 106.211 11.376C105.752 11.376 105.341 11.5467 104.979 11.888C104.627 12.2187 104.408 12.6987 104.323 13.328ZM111.168 18V10.144H112.688L112.816 11.536H112.88C113.157 11.024 113.493 10.6347 113.888 10.368C114.283 10.0907 114.688 9.952 115.104 9.952C115.477 9.952 115.776 10.0053 116 10.112L115.68 11.712C115.541 11.6693 115.413 11.6373 115.296 11.616C115.179 11.5947 115.035 11.584 114.864 11.584C114.555 11.584 114.229 11.7067 113.888 11.952C113.547 12.1867 113.253 12.6027 113.008 13.2V18H111.168ZM120.025 18.144C119.369 18.144 118.781 17.984 118.261 17.664C117.749 17.336 117.341 16.868 117.037 16.26C116.741 15.652 116.593 14.92 116.593 14.064C116.593 13.216 116.745 12.488 117.049 11.88C117.353 11.272 117.769 10.804 118.297 10.476C118.825 10.148 119.421 9.984 120.085 9.984C120.565 9.984 120.989 10.084 121.357 10.284C121.725 10.476 122.021 10.7 122.245 10.956L121.705 11.604C121.497 11.38 121.261 11.2 120.997 11.064C120.733 10.928 120.433 10.86 120.097 10.86C119.601 10.86 119.165 10.992 118.789 11.256C118.421 11.512 118.133 11.876 117.925 12.348C117.725 12.82 117.625 13.384 117.625 14.04C117.625 14.696 117.725 15.268 117.925 15.756C118.125 16.236 118.405 16.608 118.765 16.872C119.133 17.136 119.565 17.268 120.061 17.268C120.437 17.268 120.773 17.188 121.069 17.028C121.365 16.868 121.637 16.652 121.885 16.38L122.437 17.004C122.125 17.364 121.773 17.644 121.381 17.844C120.989 18.044 120.537 18.144 120.025 18.144ZM123.808 18V12.168H124.792V18H123.808ZM124.312 10.968C124.12 10.968 123.96 10.912 123.832 10.8C123.712 10.68 123.652 10.52 123.652 10.32C123.652 10.128 123.712 9.972 123.832 9.852C123.96 9.732 124.12 9.672 124.312 9.672C124.504 9.672 124.66 9.732 124.78 9.852C124.908 9.972 124.972 10.128 124.972 10.32C124.972 10.52 124.908 10.68 124.78 10.8C124.66 10.912 124.504 10.968 124.312 10.968ZM126.761 20.46V12.168H127.577L127.661 12.84H127.697C127.961 12.616 128.249 12.424 128.561 12.264C128.881 12.104 129.213 12.024 129.557 12.024C130.309 12.024 130.881 12.296 131.273 12.84C131.665 13.376 131.861 14.096 131.861 15C131.861 15.656 131.741 16.22 131.501 16.692C131.269 17.164 130.961 17.524 130.577 17.772C130.201 18.02 129.789 18.144 129.341 18.144C129.069 18.144 128.797 18.084 128.525 17.964C128.261 17.844 127.993 17.68 127.721 17.472L127.745 18.492V20.46H126.761ZM129.173 17.316C129.653 17.316 130.049 17.112 130.361 16.704C130.681 16.288 130.841 15.72 130.841 15C130.841 14.36 130.721 13.844 130.481 13.452C130.249 13.052 129.857 12.852 129.305 12.852C129.057 12.852 128.805 12.92 128.549 13.056C128.301 13.192 128.033 13.388 127.745 13.644V16.704C128.009 16.928 128.265 17.088 128.513 17.184C128.761 17.272 128.981 17.316 129.173 17.316ZM133.418 18V9.456H134.402V11.784L134.366 12.984C134.646 12.72 134.938 12.496 135.242 12.312C135.554 12.12 135.91 12.024 136.31 12.024C136.926 12.024 137.374 12.22 137.654 12.612C137.942 12.996 138.086 13.56 138.086 14.304V18H137.102V14.436C137.102 13.892 137.014 13.496 136.838 13.248C136.662 13 136.382 12.876 135.998 12.876C135.702 12.876 135.434 12.952 135.194 13.104C134.962 13.256 134.698 13.48 134.402 13.776V18H133.418ZM142.309 18.144C141.789 18.144 141.317 18.024 140.893 17.784C140.469 17.536 140.133 17.184 139.885 16.728C139.637 16.272 139.513 15.728 139.513 15.096C139.513 14.456 139.637 13.908 139.885 13.452C140.141 12.996 140.469 12.644 140.869 12.396C141.269 12.148 141.689 12.024 142.129 12.024C142.873 12.024 143.445 12.272 143.845 12.768C144.253 13.264 144.457 13.928 144.457 14.76C144.457 14.864 144.453 14.968 144.445 15.072C144.445 15.168 144.437 15.252 144.421 15.324H140.485C140.525 15.94 140.717 16.432 141.061 16.8C141.413 17.168 141.869 17.352 142.429 17.352C142.709 17.352 142.965 17.312 143.197 17.232C143.437 17.144 143.665 17.032 143.881 16.896L144.229 17.544C143.981 17.704 143.697 17.844 143.377 17.964C143.065 18.084 142.709 18.144 142.309 18.144ZM140.473 14.616H143.593C143.593 14.024 143.465 13.576 143.209 13.272C142.961 12.96 142.609 12.804 142.153 12.804C141.745 12.804 141.377 12.964 141.049 13.284C140.729 13.596 140.537 14.04 140.473 14.616ZM145.898 18V12.168H146.714L146.798 13.224H146.834C147.034 12.856 147.278 12.564 147.566 12.348C147.854 12.132 148.162 12.024 148.49 12.024C148.722 12.024 148.93 12.064 149.114 12.144L148.922 13.008C148.826 12.976 148.738 12.952 148.658 12.936C148.578 12.92 148.478 12.912 148.358 12.912C148.11 12.912 147.85 13.012 147.578 13.212C147.314 13.412 147.082 13.76 146.882 14.256V18H145.898Z" fill="black"/>
</svg>
