<svg width="207" height="30" viewBox="0 0 207 30" fill="none" xmlns="http://www.w3.org/2000/svg">
<path d="M10.328 24.384C8.55733 24.384 6.91467 24 5.4 23.232C3.90667 22.4427 2.70133 21.2587 1.784 19.68C0.866667 18.1013 0.408 16.128 0.408 13.76C0.408 12.0107 0.674667 10.464 1.208 9.12C1.76267 7.75467 2.50933 6.60267 3.448 5.664C4.408 4.72533 5.48533 4.02133 6.68 3.552C7.896 3.06133 9.15467 2.816 10.456 2.816C11.8427 2.816 13.08 3.09333 14.168 3.648C15.2773 4.18133 16.1947 4.82133 16.92 5.568L14.04 9.088C13.528 8.64 12.9947 8.27733 12.44 8C11.9067 7.70133 11.288 7.552 10.584 7.552C9.77333 7.552 9.016 7.79733 8.312 8.288C7.62933 8.75733 7.07467 9.44 6.648 10.336C6.24267 11.232 6.04 12.3093 6.04 13.568C6.04 15.5093 6.44533 17.0133 7.256 18.08C8.088 19.1253 9.176 19.648 10.52 19.648C11.3307 19.648 12.0453 19.4667 12.664 19.104C13.304 18.7413 13.848 18.3253 14.296 17.856L17.176 21.312C16.3013 22.336 15.2773 23.104 14.104 23.616C12.9307 24.128 11.672 24.384 10.328 24.384ZM19.606 24V8H25.11V24H19.606ZM22.358 6.016C21.462 6.016 20.7367 5.77067 20.182 5.28C19.6273 4.768 19.35 4.096 19.35 3.264C19.35 2.432 19.6273 1.77067 20.182 1.28C20.7367 0.767999 21.462 0.511999 22.358 0.511999C23.254 0.511999 23.9793 0.767999 24.534 1.28C25.0887 1.77067 25.366 2.432 25.366 3.264C25.366 4.096 25.0887 4.768 24.534 5.28C23.9793 5.77067 23.254 6.016 22.358 6.016ZM28.8248 29.632V8H33.3048L33.6888 9.472H33.8168C34.4141 8.91733 35.0861 8.46933 35.8328 8.128C36.6008 7.78667 37.3794 7.616 38.1688 7.616C39.4274 7.616 40.5154 7.95733 41.4328 8.64C42.3714 9.30133 43.0968 10.24 43.6088 11.456C44.1208 12.672 44.3768 14.1013 44.3768 15.744C44.3768 17.5787 44.0568 19.1467 43.4167 20.448C42.7768 21.728 41.9448 22.7093 40.9208 23.392C39.9181 24.0533 38.8514 24.384 37.7208 24.384C36.3981 24.384 35.2034 23.8507 34.1368 22.784L34.3288 25.216V29.632H28.8248ZM36.3767 19.904C37.0168 19.904 37.5714 19.6053 38.0408 19.008C38.5101 18.4107 38.7448 17.344 38.7448 15.808C38.7448 14.4853 38.5528 13.536 38.1688 12.96C37.8061 12.384 37.2514 12.096 36.5048 12.096C36.0994 12.096 35.7261 12.1813 35.3848 12.352C35.0434 12.5227 34.6914 12.8213 34.3288 13.248V19.136C34.6488 19.4133 34.9794 19.616 35.3208 19.744C35.6834 19.8507 36.0354 19.904 36.3767 19.904ZM47.3873 24V1.728H52.8913V6.912L52.6353 9.664C53.1899 9.17333 53.8513 8.71467 54.6193 8.288C55.4086 7.84 56.3473 7.616 57.4353 7.616C59.2059 7.616 60.4753 8.21333 61.2433 9.408C62.0326 10.5813 62.4272 12.16 62.4272 14.144V24H56.9233V14.848C56.9233 13.824 56.7953 13.1413 56.5393 12.8C56.2833 12.4587 55.8779 12.288 55.3233 12.288C54.8113 12.288 54.3846 12.3947 54.0433 12.608C53.7019 12.8213 53.3179 13.12 52.8913 13.504V24H47.3873ZM73.4363 24.384C71.8789 24.384 70.4709 24.0533 69.2123 23.392C67.9749 22.7307 66.9936 21.7813 66.2682 20.544C65.5429 19.2853 65.1803 17.7707 65.1803 16C65.1803 14.272 65.5429 12.7893 66.2682 11.552C67.0149 10.2933 67.9749 9.32267 69.1483 8.64C70.3216 7.95733 71.5589 7.616 72.8603 7.616C74.4389 7.616 75.7403 7.968 76.7643 8.672C77.8096 9.35467 78.5776 10.2827 79.0683 11.456C79.5803 12.6293 79.8363 13.9307 79.8363 15.36C79.8363 15.8293 79.8043 16.288 79.7403 16.736C79.6976 17.1627 79.6549 17.472 79.6123 17.664H70.4923C70.7483 18.624 71.2069 19.296 71.8683 19.68C72.5296 20.0427 73.3083 20.224 74.2043 20.224C75.2283 20.224 76.3163 19.904 77.4683 19.264L79.2603 22.528C78.4069 23.1253 77.4469 23.584 76.3803 23.904C75.3136 24.224 74.3323 24.384 73.4363 24.384ZM70.4283 14.08H75.1643C75.1643 13.4613 75.0043 12.928 74.6843 12.48C74.3856 12.0107 73.8203 11.776 72.9883 11.776C72.3909 11.776 71.8576 11.9573 71.3883 12.32C70.9189 12.6827 70.5989 13.2693 70.4283 14.08ZM82.856 24V8H87.336L87.72 10.752H87.848C88.4453 9.664 89.1493 8.87467 89.96 8.384C90.792 7.872 91.6027 7.616 92.392 7.616C92.8827 7.616 93.2773 7.648 93.576 7.712C93.896 7.75467 94.1627 7.82933 94.376 7.936L93.48 12.672C93.2027 12.608 92.9253 12.5547 92.648 12.512C92.3707 12.448 92.0507 12.416 91.688 12.416C91.112 12.416 90.504 12.6187 89.864 13.024C89.2453 13.408 88.744 14.1013 88.36 15.104V24H82.856ZM102.631 24.288C101.319 24.288 100.127 23.976 99.055 23.352C97.983 22.728 97.127 21.816 96.487 20.616C95.863 19.4 95.551 17.928 95.551 16.2C95.551 14.488 95.871 13.024 96.511 11.808C97.167 10.576 98.039 9.64 99.127 9C100.215 8.344 101.415 8.016 102.727 8.016C103.719 8.016 104.599 8.216 105.367 8.616C106.135 9.016 106.767 9.48 107.263 10.008L105.775 11.808C105.375 11.392 104.927 11.064 104.431 10.824C103.951 10.568 103.407 10.44 102.799 10.44C101.951 10.44 101.191 10.672 100.519 11.136C99.863 11.584 99.343 12.232 98.959 13.08C98.591 13.928 98.407 14.944 98.407 16.128C98.407 17.92 98.799 19.328 99.583 20.352C100.367 21.36 101.415 21.864 102.727 21.864C103.431 21.864 104.055 21.72 104.599 21.432C105.143 21.128 105.639 20.736 106.087 20.256L107.575 22.008C106.935 22.744 106.199 23.312 105.367 23.712C104.551 24.096 103.639 24.288 102.631 24.288ZM109.955 24V12.216H112.715V24H109.955ZM111.347 10.152C110.851 10.152 110.451 10.008 110.147 9.72C109.843 9.432 109.691 9.048 109.691 8.568C109.691 8.104 109.843 7.728 110.147 7.44C110.451 7.152 110.851 7.008 111.347 7.008C111.843 7.008 112.243 7.152 112.547 7.44C112.851 7.728 113.003 8.104 113.003 8.568C113.003 9.048 112.851 9.432 112.547 9.72C112.243 10.008 111.843 10.152 111.347 10.152ZM116.236 28.656V12.216H118.516L118.708 13.464H118.804C119.3 13.048 119.852 12.688 120.46 12.384C121.084 12.08 121.716 11.928 122.356 11.928C123.828 11.928 124.964 12.472 125.764 13.56C126.58 14.648 126.988 16.104 126.988 17.928C126.988 19.272 126.748 20.424 126.268 21.384C125.788 22.328 125.164 23.048 124.396 23.544C123.644 24.04 122.828 24.288 121.948 24.288C121.436 24.288 120.924 24.176 120.412 23.952C119.9 23.712 119.404 23.392 118.924 22.992L118.996 24.96V28.656H116.236ZM121.372 22.008C122.156 22.008 122.812 21.664 123.34 20.976C123.868 20.288 124.132 19.28 124.132 17.952C124.132 16.768 123.932 15.848 123.532 15.192C123.132 14.536 122.484 14.208 121.588 14.208C120.756 14.208 119.892 14.648 118.996 15.528V21.024C119.428 21.376 119.844 21.632 120.244 21.792C120.644 21.936 121.02 22.008 121.372 22.008ZM129.783 24V7.056H132.543V11.424L132.447 13.704C132.943 13.24 133.495 12.832 134.103 12.48C134.711 12.112 135.415 11.928 136.215 11.928C137.479 11.928 138.399 12.336 138.975 13.152C139.551 13.968 139.839 15.12 139.839 16.608V24H137.079V16.968C137.079 15.992 136.935 15.304 136.647 14.904C136.359 14.504 135.887 14.304 135.231 14.304C134.719 14.304 134.263 14.432 133.863 14.688C133.479 14.928 133.039 15.288 132.543 15.768V24H129.783ZM148.206 24.288C147.118 24.288 146.134 24.048 145.254 23.568C144.374 23.072 143.678 22.368 143.166 21.456C142.654 20.528 142.398 19.416 142.398 18.12C142.398 16.84 142.654 15.736 143.166 14.808C143.694 13.88 144.374 13.168 145.206 12.672C146.038 12.176 146.91 11.928 147.822 11.928C148.894 11.928 149.79 12.168 150.51 12.648C151.23 13.112 151.774 13.768 152.142 14.616C152.51 15.448 152.694 16.416 152.694 17.52C152.694 18.096 152.654 18.544 152.574 18.864H145.086C145.214 19.904 145.59 20.712 146.214 21.288C146.838 21.864 147.622 22.152 148.566 22.152C149.078 22.152 149.55 22.08 149.982 21.936C150.43 21.776 150.87 21.56 151.302 21.288L152.238 23.016C151.678 23.384 151.054 23.688 150.366 23.928C149.678 24.168 148.958 24.288 148.206 24.288ZM145.062 16.992H150.294C150.294 16.08 150.094 15.368 149.694 14.856C149.294 14.328 148.694 14.064 147.894 14.064C147.206 14.064 146.59 14.32 146.046 14.832C145.518 15.328 145.19 16.048 145.062 16.992ZM155.33 24V12.216H157.61L157.802 14.304H157.898C158.314 13.536 158.818 12.952 159.41 12.552C160.002 12.136 160.61 11.928 161.234 11.928C161.794 11.928 162.242 12.008 162.578 12.168L162.098 14.568C161.89 14.504 161.698 14.456 161.522 14.424C161.346 14.392 161.13 14.376 160.874 14.376C160.41 14.376 159.922 14.56 159.41 14.928C158.898 15.28 158.458 15.904 158.09 16.8V24H155.33ZM167.939 24.192C167.065 24.192 166.281 23.9787 165.587 23.552C164.905 23.1147 164.361 22.4907 163.955 21.68C163.561 20.8693 163.363 19.8933 163.363 18.752C163.363 17.6213 163.566 16.6507 163.971 15.84C164.377 15.0293 164.931 14.4053 165.635 13.968C166.339 13.5307 167.134 13.312 168.019 13.312C168.659 13.312 169.225 13.4453 169.715 13.712C170.206 13.968 170.601 14.2667 170.899 14.608L170.179 15.472C169.902 15.1733 169.587 14.9333 169.235 14.752C168.883 14.5707 168.483 14.48 168.035 14.48C167.374 14.48 166.793 14.656 166.291 15.008C165.801 15.3493 165.417 15.8347 165.139 16.464C164.873 17.0933 164.739 17.8453 164.739 18.72C164.739 19.5947 164.873 20.3573 165.139 21.008C165.406 21.648 165.779 22.144 166.259 22.496C166.75 22.848 167.326 23.024 167.987 23.024C168.489 23.024 168.937 22.9173 169.331 22.704C169.726 22.4907 170.089 22.2027 170.419 21.84L171.155 22.672C170.739 23.152 170.27 23.5253 169.747 23.792C169.225 24.0587 168.622 24.192 167.939 24.192ZM172.984 24V16.224H174.296V24H172.984ZM173.656 14.624C173.4 14.624 173.187 14.5493 173.016 14.4C172.856 14.24 172.776 14.0267 172.776 13.76C172.776 13.504 172.856 13.296 173.016 13.136C173.187 12.976 173.4 12.896 173.656 12.896C173.912 12.896 174.12 12.976 174.28 13.136C174.451 13.296 174.536 13.504 174.536 13.76C174.536 14.0267 174.451 14.24 174.28 14.4C174.12 14.5493 173.912 14.624 173.656 14.624ZM176.921 27.28V16.224H178.009L178.121 17.12H178.169C178.521 16.8213 178.905 16.5653 179.321 16.352C179.748 16.1387 180.191 16.032 180.649 16.032C181.652 16.032 182.415 16.3947 182.937 17.12C183.46 17.8347 183.721 18.7947 183.721 20C183.721 20.8747 183.561 21.6267 183.241 22.256C182.932 22.8853 182.521 23.3653 182.009 23.696C181.508 24.0267 180.959 24.192 180.361 24.192C179.999 24.192 179.636 24.112 179.273 23.952C178.921 23.792 178.564 23.5733 178.201 23.296L178.233 24.656V27.28H176.921ZM180.137 23.088C180.777 23.088 181.305 22.816 181.721 22.272C182.148 21.7173 182.361 20.96 182.361 20C182.361 19.1467 182.201 18.4587 181.881 17.936C181.572 17.4027 181.049 17.136 180.313 17.136C179.983 17.136 179.647 17.2267 179.305 17.408C178.975 17.5893 178.617 17.8507 178.233 18.192V22.272C178.585 22.5707 178.927 22.784 179.257 22.912C179.588 23.0293 179.881 23.088 180.137 23.088ZM185.796 24V12.608H187.108V15.712L187.06 17.312C187.434 16.96 187.823 16.6613 188.228 16.416C188.644 16.16 189.119 16.032 189.652 16.032C190.474 16.032 191.071 16.2933 191.444 16.816C191.828 17.328 192.02 18.08 192.02 19.072V24H190.708V19.248C190.708 18.5227 190.591 17.9947 190.356 17.664C190.122 17.3333 189.748 17.168 189.236 17.168C188.842 17.168 188.484 17.2693 188.164 17.472C187.855 17.6747 187.503 17.9733 187.108 18.368V24H185.796ZM197.652 24.192C196.958 24.192 196.329 24.032 195.764 23.712C195.198 23.3813 194.75 22.912 194.42 22.304C194.089 21.696 193.924 20.9707 193.924 20.128C193.924 19.2747 194.089 18.544 194.42 17.936C194.761 17.328 195.198 16.8587 195.732 16.528C196.265 16.1973 196.825 16.032 197.411 16.032C198.404 16.032 199.166 16.3627 199.7 17.024C200.244 17.6853 200.516 18.5707 200.516 19.68C200.516 19.8187 200.51 19.9573 200.5 20.096C200.5 20.224 200.489 20.336 200.468 20.432H195.22C195.273 21.2533 195.529 21.9093 195.988 22.4C196.457 22.8907 197.065 23.136 197.812 23.136C198.185 23.136 198.526 23.0827 198.836 22.976C199.156 22.8587 199.46 22.7093 199.748 22.528L200.212 23.392C199.881 23.6053 199.502 23.792 199.076 23.952C198.66 24.112 198.185 24.192 197.652 24.192ZM195.204 19.488H199.364C199.364 18.6987 199.193 18.1013 198.852 17.696C198.521 17.28 198.052 17.072 197.444 17.072C196.9 17.072 196.409 17.2853 195.972 17.712C195.545 18.128 195.289 18.72 195.204 19.488ZM202.437 24V16.224H203.525L203.637 17.632H203.685C203.952 17.1413 204.277 16.752 204.661 16.464C205.045 16.176 205.456 16.032 205.893 16.032C206.202 16.032 206.48 16.0853 206.725 16.192L206.469 17.344C206.341 17.3013 206.224 17.2693 206.117 17.248C206.01 17.2267 205.877 17.216 205.717 17.216C205.386 17.216 205.04 17.3493 204.677 17.616C204.325 17.8827 204.016 18.3467 203.749 19.008V24H202.437Z" fill="black"/>
</svg>
